<?xml version="1.0" standalone="no"?>
<!DOCTYPE svg PUBLIC "-//W3C//DTD SVG 20010904//EN"
 "http://www.w3.org/TR/2001/REC-SVG-20010904/DTD/svg10.dtd">
<svg version="1.0" xmlns="http://www.w3.org/2000/svg"
 width="525.000000pt" height="525.000000pt" viewBox="0 0 525.000000 525.000000"
 preserveAspectRatio="xMidYMid meet">
<metadata>
Created by potrace 1.14, written by Peter Selinger 2001-2017
</metadata>
<g transform="translate(0.000000,525.000000) scale(0.100000,-0.100000)"
fill="#000000" stroke="none">
<path d="M14 4305 c-20 -31 -14 -72 31 -204 46 -136 78 -200 163 -329 167
-253 367 -416 690 -560 151 -68 406 -132 467 -116 24 6 23 6 -20 59 -88 108
-153 273 -170 426 l-6 55 -127 64 c-70 35 -203 109 -297 163 -93 55 -186 109
-205 119 -19 11 -47 29 -62 39 -14 11 -29 19 -32 19 -7 0 -144 91 -175 115 -9
8 -43 35 -76 62 -78 64 -146 113 -156 113 -5 0 -16 -11 -25 -25z"/>
<path d="M5127 4288 c-169 -130 -251 -191 -332 -245 -216 -144 -565 -353 -638
-382 l-52 -21 -1 -73 c-2 -117 -68 -289 -160 -409 -24 -31 -40 -59 -36 -61 12
-7 183 31 286 65 200 64 441 205 626 367 83 72 120 113 200 220 135 181 258
491 221 560 -18 32 -53 26 -114 -21z"/>
<path d="M1263 3546 c20 -211 171 -419 401 -550 l75 -43 -52 5 c-29 2 -99 20
-156 39 -57 19 -106 31 -109 28 -3 -3 12 -43 35 -88 82 -164 244 -300 431
-361 28 -10 52 -22 52 -28 0 -15 -133 -4 -190 16 -24 8 -46 13 -49 10 -10 -9
31 -72 89 -135 65 -72 150 -122 268 -160 39 -13 72 -25 72 -28 0 -4 -18 -27
-41 -53 -85 -100 -249 -202 -397 -247 -53 -17 -108 -31 -121 -33 -39 -5 -34
-21 17 -55 71 -49 132 -66 210 -61 74 6 201 46 244 78 16 11 28 18 28 15 0 -2
-38 -46 -85 -97 -46 -51 -85 -99 -85 -105 0 -24 104 -15 202 17 285 91 465
340 485 670 11 182 -67 412 -191 561 -78 96 -162 158 -341 254 -49 27 -105 57
-124 67 -18 10 -158 82 -310 160 -152 77 -287 149 -301 158 -59 40 -64 37 -57
-34z"/>
<path d="M3958 3561 c-87 -56 -306 -170 -528 -275 -108 -52 -228 -115 -330
-173 -80 -46 -170 -124 -222 -192 -105 -139 -178 -342 -178 -495 0 -216 123
-489 274 -608 95 -75 234 -128 336 -128 92 0 96 5 51 59 -21 25 -63 71 -92
101 -48 48 -52 60 -9 24 8 -6 55 -26 103 -43 105 -37 214 -42 283 -13 49 20
154 84 154 93 0 3 -32 9 -71 13 -113 10 -223 52 -352 133 -51 32 -197 172
-197 189 0 7 19 18 43 24 106 27 198 80 277 159 48 48 90 116 90 146 0 14 -3
14 -27 2 -58 -30 -213 -51 -220 -31 -2 5 28 20 66 32 91 30 237 126 327 216
52 52 81 92 109 149 20 43 35 80 33 83 -3 2 -42 -10 -89 -27 -78 -30 -200 -61
-207 -55 -1 2 41 33 95 68 54 36 121 89 148 120 65 71 140 197 170 284 26 75
36 165 20 171 -6 2 -31 -10 -57 -26z"/>
<path d="M4898 3496 c-15 -8 -53 -35 -84 -60 -30 -25 -69 -54 -85 -63 -16 -10
-29 -21 -29 -25 0 -4 -4 -8 -9 -8 -5 0 -36 -18 -68 -39 -66 -44 -266 -145
-358 -182 -33 -13 -114 -42 -180 -64 l-120 -40 -40 -81 c-35 -72 -84 -142
-132 -189 -19 -19 -20 -19 42 -40 67 -23 214 -30 314 -16 203 30 417 143 557
294 135 146 241 322 266 441 12 53 11 59 -7 72 -24 18 -33 17 -67 0z"/>
<path d="M270 3475 c-16 -19 -7 -68 28 -148 146 -341 433 -576 781 -641 143
-27 316 -15 396 27 l24 12 -34 43 c-43 55 -76 112 -105 183 l-22 55 -77 18
c-94 22 -315 95 -396 130 -85 38 -100 45 -193 98 -46 27 -86 48 -88 48 -8 0
-125 81 -198 137 -71 55 -95 63 -116 38z"/>
<path d="M2507 3374 c-105 -23 -287 -128 -287 -166 0 -4 19 -20 43 -35 23 -16
47 -32 53 -38 6 -5 27 -23 48 -40 67 -53 156 -175 212 -291 30 -61 54 -119 54
-128 0 -33 17 -14 48 52 91 193 220 353 346 426 37 22 69 42 71 46 8 14 -59
75 -112 103 -147 78 -328 105 -476 71z"/>
<path d="M663 2729 c-8 -8 -8 -22 3 -51 20 -57 58 -105 140 -177 167 -146 264
-187 464 -198 99 -5 130 -2 297 31 20 4 21 2 11 -14 -31 -49 -167 -74 -349
-64 -68 4 -123 3 -133 -3 -15 -8 -14 -14 16 -50 49 -60 164 -129 274 -162 126
-40 334 -24 439 32 64 34 155 110 155 129 0 12 -17 26 -47 40 -143 66 -318
257 -342 372 -10 45 -31 52 -93 32 -82 -26 -201 -39 -317 -33 -121 5 -184 20
-348 83 -122 46 -151 52 -170 33z"/>
<path d="M4451 2719 c-153 -68 -296 -100 -444 -100 -114 0 -153 6 -246 37 -53
18 -67 9 -76 -46 -3 -19 -20 -64 -37 -100 -41 -85 -167 -211 -258 -259 -36
-19 -66 -35 -68 -37 -7 -5 21 -48 47 -71 14 -13 63 -42 108 -65 76 -38 90 -41
183 -46 56 -3 127 0 162 7 89 16 258 103 309 158 21 23 39 47 39 52 0 5 -79
11 -188 13 -178 3 -190 4 -237 28 -53 28 -76 58 -34 46 81 -23 201 -38 270
-32 214 15 339 78 494 247 85 92 109 144 80 173 -21 21 -49 19 -104 -5z"/>
<path d="M2622 2147 c-17 -70 -60 -160 -126 -260 -70 -107 -124 -167 -239
-265 -80 -69 -266 -202 -282 -202 -3 0 -34 -17 -69 -38 -106 -65 -302 -142
-436 -172 -136 -30 -134 -29 -114 -51 24 -27 172 -109 264 -146 75 -31 96 -36
136 -34 19 1 233 177 358 295 49 45 86 59 86 32 0 -25 -123 -182 -247 -316
-18 -19 -33 -40 -33 -47 0 -29 336 -31 365 -2 32 32 228 436 315 651 38 93 62
129 77 115 12 -12 -117 -429 -194 -626 -24 -63 -40 -117 -36 -121 17 -17 279
65 293 90 6 11 15 50 20 87 5 38 18 136 30 218 11 83 25 195 30 249 6 55 14
104 18 108 4 4 16 2 26 -5 16 -12 19 -29 20 -123 0 -60 -3 -191 -7 -291 -7
-153 -6 -183 6 -183 21 0 95 53 170 122 l68 63 -21 130 c-11 72 -24 150 -28
174 -7 42 -12 48 -89 100 -96 66 -122 93 -208 222 -59 87 -125 222 -125 255 0
34 -17 17 -28 -29z"/>
<path d="M3140 1592 c0 -32 57 -162 82 -189 l23 -24 44 48 c42 46 99 149 88
159 -3 3 -48 7 -101 9 -53 2 -105 7 -116 10 -15 5 -20 2 -20 -13z"/>
</g>
</svg>
